<?xml version="1.0" encoding="iso-8859-1"?>
<!-- Generator: Adobe Illustrator 19.0.0, SVG Export Plug-In . SVG Version: 6.00 Build 0)  -->
<svg xmlns="http://www.w3.org/2000/svg" xmlns:xlink="http://www.w3.org/1999/xlink" version="1.1" id="Layer_1" x="0px" y="0px" viewBox="0 0 512 512" style="enable-background:new 0 0 512 512;" xml:space="preserve" width="512px" height="512px">
<g>
	<g>
		<g>
			<path d="M200.071,87.803c4.142,0,7.5-3.358,7.5-7.5V41.475c0-4.142-3.358-7.5-7.5-7.5c-4.142,0-7.5,3.358-7.5,7.5v38.828     C192.571,84.445,195.929,87.803,200.071,87.803z" fill="#FFFFFF"/>
			<path d="M199.589,107.217h0.964c4.142,0,7.5-3.358,7.5-7.5c0-4.142-3.358-7.5-7.5-7.5h-0.964c-4.142,0-7.5,3.358-7.5,7.5     C192.089,103.859,195.447,107.217,199.589,107.217z" fill="#FFFFFF"/>
			<path d="M172.107,63.096c-4.142,0-7.5,3.358-7.5,7.5v29.121c0,4.142,3.358,7.5,7.5,7.5c4.142,0,7.5-3.358,7.5-7.5V70.596     C179.607,66.454,176.249,63.096,172.107,63.096z" fill="#FFFFFF"/>
			<path d="M99.304,105.275c4.142,0,7.5-3.358,7.5-7.5v-19.68h28.393v19.68c0,4.142,3.358,7.5,7.5,7.5c4.142,0,7.5-3.358,7.5-7.5     V43.416c0-4.142-3.358-7.5-7.5-7.5c-4.142,0-7.5,3.358-7.5,7.5v19.68h-28.393v-19.68c0-4.142-3.358-7.5-7.5-7.5     c-4.142,0-7.5,3.358-7.5,7.5v54.359C91.804,101.917,95.162,105.275,99.304,105.275z" fill="#FFFFFF"/>
			<path d="M214.006,143.663l3.054,6.148c3.308,6.659,9.966,10.796,17.378,10.796c10.708,0,19.419-8.748,19.419-19.499V53.829h22.13     c4.143,0,7.5-3.358,7.5-7.5c0-4.142-3.357-7.5-7.5-7.5h-22.13v-19.33C253.857,8.747,245.146,0,234.438,0H105.571     c-4.142,0-7.5,3.358-7.5,7.5s3.358,7.5,7.5,7.5h128.867c2.437,0,4.419,2.019,4.419,4.499v121.608     c0,2.481-1.982,4.499-4.419,4.499c-1.676,0-3.188-0.947-3.944-2.469l-3.054-6.149c-3.308-6.659-9.966-10.796-17.378-10.796     H65.419c-2.437,0-4.419-2.019-4.419-4.499V19.499C61,17.018,62.982,15,65.419,15h11.224c4.142,0,7.5-3.358,7.5-7.5     S80.785,0,76.643,0H65.419C54.711,0,46,8.747,46,19.499v102.193c0,10.752,8.711,19.499,19.419,19.499h144.643     C211.738,141.191,213.25,142.138,214.006,143.663z" fill="#FFFFFF"/>
			<path d="M172.589,40.769h-0.964c-4.142,0-7.5,3.358-7.5,7.5c0,4.142,3.358,7.5,7.5,7.5h0.964c4.142,0,7.5-3.358,7.5-7.5     C180.089,44.127,176.731,40.769,172.589,40.769z" fill="#FFFFFF"/>
			<path d="M365.929,461.523h63.643c4.143,0,7.5-3.358,7.5-7.5V46.328c0-4.142-3.357-7.5-7.5-7.5h-79.948     c-4.143,0-7.5,3.358-7.5,7.5c0,4.142,3.357,7.5,7.5,7.5h72.448v256.797h-27.429v-87.119c0-8.135-5.516-15.042-13.411-16.795     c-15.846-3.52-40.396-7.716-67.374-7.716c-26.979,0-51.529,4.196-67.374,7.716c-7.772,1.726-13.413,8.79-13.413,16.795v87.119     h-27.428V172.52c0-4.142-3.358-7.5-7.5-7.5c-4.142,0-7.5,3.358-7.5,7.5v281.504c0,4.142,3.358,7.5,7.5,7.5h87.9     c3.971,5.853,10.678,9.707,18.268,9.707h19.093c12.164,0,22.061-9.896,22.061-22.061c0-12.165-9.896-22.061-22.061-22.061     h-19.093c-11.268,0-20.584,8.494-21.896,19.414h-76.771V325.625h216.428v120.898h-56.143c-4.143,0-7.5,3.358-7.5,7.5     C358.429,458.165,361.786,461.523,365.929,461.523z M304.311,442.109h19.093c3.894,0,7.061,3.167,7.061,7.061     c0,3.894-3.167,7.061-7.061,7.061h-19.093c-3.894,0-7.061-3.167-7.061-7.061C297.25,445.276,300.417,442.109,304.311,442.109z      M379.642,310.625h-25.5v-60.449c0-4.142-3.357-7.5-7.5-7.5s-7.5,3.358-7.5,7.5v60.449h-52.5v-60.449c0-4.142-3.357-7.5-7.5-7.5     s-7.5,3.358-7.5,7.5v60.449h-23.571v-87.119c0-1.033,0.7-1.938,1.665-2.152c15.111-3.357,38.503-7.359,64.121-7.359     c25.617,0,49.009,4.002,64.121,7.359c0.964,0.214,1.664,1.119,1.664,2.152V310.625z" fill="#FFFFFF"/>
			<path d="M258.384,378.309c0,13.77,11.151,24.973,24.857,24.973s24.857-11.203,24.857-24.973c0-13.77-11.151-24.973-24.857-24.973     S258.384,364.539,258.384,378.309z M293.099,378.309c0,5.499-4.422,9.973-9.857,9.973s-9.857-4.474-9.857-9.973     c0-5.499,4.422-9.973,9.857-9.973S293.099,372.81,293.099,378.309z" fill="#FFFFFF"/>
			<path d="M369.33,378.309c0-13.77-11.15-24.973-24.856-24.973s-24.857,11.203-24.857,24.973c0,13.77,11.151,24.973,24.857,24.973     S369.33,392.079,369.33,378.309z M344.474,388.281c-5.436,0-9.857-4.474-9.857-9.973c0-5.499,4.422-9.973,9.857-9.973     s9.856,4.474,9.856,9.973C354.33,383.807,349.908,388.281,344.474,388.281z" fill="#FFFFFF"/>
			<path d="M272.839,138.545c0,22.869,18.4,41.475,41.019,41.475s41.019-18.605,41.019-41.475s-18.4-41.475-41.019-41.475     S272.839,115.676,272.839,138.545z M313.857,112.07c14.347,0,26.019,11.876,26.019,26.475s-11.672,26.475-26.019,26.475     c-14.347,0-26.019-11.876-26.019-26.475S299.511,112.07,313.857,112.07z" fill="#FFFFFF"/>
			<path d="M448.858,0H279.144c-4.143,0-7.5,3.358-7.5,7.5s3.357,7.5,7.5,7.5h169.713c1.182,0,2.143,0.99,2.143,2.207v477.586     c0,1.217-0.961,2.207-2.143,2.207h-270c-1.182,0-2.143-0.99-2.143-2.207v-331.98c0-4.142-3.358-7.5-7.5-7.5     c-4.142,0-7.5,3.358-7.5,7.5v331.98c0,9.488,7.69,17.207,17.143,17.207h270c9.453,0,17.143-7.719,17.143-17.207V17.207     C466,7.719,458.31,0,448.858,0z" fill="#FFFFFF"/>
			<path d="M323.5,53.828c4.143,0,7.5-3.358,7.5-7.5c0-4.142-3.357-7.5-7.5-7.5h-19.286c-4.143,0-7.5,3.358-7.5,7.5     c0,4.142,3.357,7.5,7.5,7.5H323.5z" fill="#FFFFFF"/>
		</g>
	</g>
</g>
<g>
</g>
<g>
</g>
<g>
</g>
<g>
</g>
<g>
</g>
<g>
</g>
<g>
</g>
<g>
</g>
<g>
</g>
<g>
</g>
<g>
</g>
<g>
</g>
<g>
</g>
<g>
</g>
<g>
</g>
</svg>
